<?xml version="1.0" standalone="no"?>
 <!DOCTYPE svg PUBLIC "-//W3C//DTD SVG 1.1//EN" 
 "http://www.w3.org/Graphics/SVG/1.1/DTD/svg11.dtd"> 
<svg
  xmlns:svg="http://www.w3.org/2000/svg"
  xmlns="http://www.w3.org/2000/svg"
  xmlns:xlink="http://www.w3.org/1999/xlink"
  version="1.1"
  width="29.700220cm" height="21.000720cm" viewBox="0 0 116930 82680">
<title>SVG Picture created as MIDIPresetController-MIDI_Output.svg date 2022/10/15 00:19:51 </title>
  <desc>Picture generated by Eeschema-SVG </desc>
<g style="fill:#000000; fill-opacity:1.000000;stroke:#000000; stroke-opacity:1.000000;
stroke-linecap:round; stroke-linejoin:round;"
 transform="translate(0 0) scale(1 1)">
</g>
<g style="fill:#840000; fill-opacity:0.0; 
stroke:#840000; stroke-width:0.000000; stroke-opacity:1; 
stroke-linecap:round; stroke-linejoin:round;">
</g>
<g style="fill:#840000; fill-opacity:0.0; 
stroke:#840000; stroke-width:60.000000; stroke-opacity:1; 
stroke-linecap:round; stroke-linejoin:round;">
<rect x="69685.905512" y="65357.165354" width="42519.685039" height="12598.425197" rx="0.000000" />
<rect x="3937.007874" y="3937.007874" width="109055.984252" height="74805.984252" rx="0.000000" />
<rect x="4724.409449" y="4724.409449" width="107481.181102" height="73231.181102" rx="0.000000" />
<path d="M23622 4724
L23622 3937
" />
<path d="M43307 4724
L43307 3937
" />
<path d="M62992 4724
L62992 3937
" />
<path d="M82677 4724
L82677 3937
" />
<path d="M102362 4724
L102362 3937
" />
<text x="13779.527559" y="4586.614173"
textLength="549.960630" font-size="682.401575" lengthAdjust="spacingAndGlyphs"
text-anchor="start" opacity="0">1</text>
<g class="stroked-text"><desc>1</desc>
<path d="M14199 4562
L13907 4562
" />
<path d="M14053 4562
L14053 4050
L14004 4123
L13955 4172
L13907 4196
" />
</g><text x="33464.566929" y="4586.614173"
textLength="547.440945" font-size="682.401575" lengthAdjust="spacingAndGlyphs"
text-anchor="start" opacity="0">2</text>
<g class="stroked-text"><desc>2</desc>
<path d="M33592 4099
L33616 4074
L33665 4050
L33787 4050
L33835 4074
L33860 4099
L33884 4147
L33884 4196
L33860 4269
L33567 4562
L33884 4562
" />
</g><text x="53149.606299" y="4586.614173"
textLength="547.440945" font-size="682.401575" lengthAdjust="spacingAndGlyphs"
text-anchor="start" opacity="0">3</text>
<g class="stroked-text"><desc>3</desc>
<path d="M53252 4050
L53569 4050
L53398 4245
L53472 4245
L53520 4269
L53545 4294
L53569 4342
L53569 4464
L53545 4513
L53520 4537
L53472 4562
L53325 4562
L53277 4537
L53252 4513
" />
</g><text x="72834.645669" y="4586.614173"
textLength="547.440945" font-size="682.401575" lengthAdjust="spacingAndGlyphs"
text-anchor="start" opacity="0">4</text>
<g class="stroked-text"><desc>4</desc>
<path d="M73205 4221
L73205 4562
" />
<path d="M73083 4026
L72962 4391
L73278 4391
" />
</g><text x="92519.685039" y="4586.614173"
textLength="547.440945" font-size="682.401575" lengthAdjust="spacingAndGlyphs"
text-anchor="start" opacity="0">5</text>
<g class="stroked-text"><desc>5</desc>
<path d="M92915 4050
L92671 4050
L92647 4294
L92671 4269
L92720 4245
L92842 4245
L92890 4269
L92915 4294
L92939 4342
L92939 4464
L92915 4513
L92890 4537
L92842 4562
L92720 4562
L92671 4537
L92647 4513
" />
</g><text x="112204.724409" y="4586.614173"
textLength="547.440945" font-size="682.401575" lengthAdjust="spacingAndGlyphs"
text-anchor="start" opacity="0">6</text>
<g class="stroked-text"><desc>6</desc>
<path d="M112575 4050
L112478 4050
L112429 4074
L112405 4099
L112356 4172
L112332 4269
L112332 4464
L112356 4513
L112380 4537
L112429 4562
L112527 4562
L112575 4537
L112600 4513
L112624 4464
L112624 4342
L112600 4294
L112575 4269
L112527 4245
L112429 4245
L112380 4269
L112356 4294
L112332 4342
" />
</g><path d="M23622 77955
L23622 78742
" />
<path d="M43307 77955
L43307 78742
" />
<path d="M62992 77955
L62992 78742
" />
<path d="M82677 77955
L82677 78742
" />
<path d="M102362 77955
L102362 78742
" />
<text x="13779.527559" y="78605.196850"
textLength="547.440945" font-size="682.401575" lengthAdjust="spacingAndGlyphs"
text-anchor="start" opacity="0">1</text>
<g class="stroked-text"><desc>1</desc>
<path d="M14199 78580
L13907 78580
" />
<path d="M14053 78580
L14053 78068
L14004 78142
L13955 78190
L13907 78215
" />
</g><text x="33464.566929" y="78605.196850"
textLength="547.440945" font-size="682.401575" lengthAdjust="spacingAndGlyphs"
text-anchor="start" opacity="0">2</text>
<g class="stroked-text"><desc>2</desc>
<path d="M33592 78117
L33616 78093
L33665 78068
L33787 78068
L33835 78093
L33860 78117
L33884 78166
L33884 78215
L33860 78288
L33567 78580
L33884 78580
" />
</g><text x="53149.606299" y="78605.196850"
textLength="547.440945" font-size="682.401575" lengthAdjust="spacingAndGlyphs"
text-anchor="start" opacity="0">3</text>
<g class="stroked-text"><desc>3</desc>
<path d="M53252 78068
L53569 78068
L53398 78263
L53472 78263
L53520 78288
L53545 78312
L53569 78361
L53569 78483
L53545 78532
L53520 78556
L53472 78580
L53325 78580
L53277 78556
L53252 78532
" />
</g><text x="72834.645669" y="78605.196850"
textLength="547.440945" font-size="682.401575" lengthAdjust="spacingAndGlyphs"
text-anchor="start" opacity="0">4</text>
<g class="stroked-text"><desc>4</desc>
<path d="M73205 78239
L73205 78580
" />
<path d="M73083 78044
L72962 78410
L73278 78410
" />
</g><text x="92519.685039" y="78605.196850"
textLength="547.440945" font-size="682.401575" lengthAdjust="spacingAndGlyphs"
text-anchor="start" opacity="0">5</text>
<g class="stroked-text"><desc>5</desc>
<path d="M92915 78068
L92671 78068
L92647 78312
L92671 78288
L92720 78263
L92842 78263
L92890 78288
L92915 78312
L92939 78361
L92939 78483
L92915 78532
L92890 78556
L92842 78580
L92720 78580
L92671 78556
L92647 78532
" />
</g><text x="112204.724409" y="78605.196850"
textLength="547.440945" font-size="682.401575" lengthAdjust="spacingAndGlyphs"
text-anchor="start" opacity="0">6</text>
<g class="stroked-text"><desc>6</desc>
<path d="M112575 78068
L112478 78068
L112429 78093
L112405 78117
L112356 78190
L112332 78288
L112332 78483
L112356 78532
L112380 78556
L112429 78580
L112527 78580
L112575 78556
L112600 78532
L112624 78483
L112624 78361
L112600 78312
L112575 78288
L112527 78263
L112429 78263
L112380 78288
L112356 78312
L112332 78361
" />
</g><path d="M3937 23622
L4724 23622
" />
<path d="M3937 43307
L4724 43307
" />
<path d="M3937 62992
L4724 62992
" />
<text x="4330.708661" y="14035.433071"
textLength="498.700787" font-size="682.401575" lengthAdjust="spacingAndGlyphs"
text-anchor="middle" opacity="0">A</text>
<g class="stroked-text"><desc>A</desc>
<path d="M4208 13864
L4452 13864
" />
<path d="M4160 14011
L4330 13499
L4501 14011
" />
</g><text x="4330.708661" y="33720.472441"
textLength="571.811024" font-size="682.401575" lengthAdjust="spacingAndGlyphs"
text-anchor="middle" opacity="0">B</text>
<g class="stroked-text"><desc>B</desc>
<path d="M4367 33427
L4440 33452
L4464 33476
L4489 33525
L4489 33598
L4464 33647
L4440 33671
L4391 33696
L4196 33696
L4196 33184
L4367 33184
L4415 33208
L4440 33233
L4464 33281
L4464 33330
L4440 33379
L4415 33403
L4367 33427
L4196 33427
" />
</g><text x="4330.708661" y="53405.511811"
textLength="571.811024" font-size="682.401575" lengthAdjust="spacingAndGlyphs"
text-anchor="middle" opacity="0">C</text>
<g class="stroked-text"><desc>C</desc>
<path d="M4489 53332
L4464 53356
L4391 53381
L4342 53381
L4269 53356
L4221 53307
L4196 53259
L4172 53161
L4172 53088
L4196 52991
L4221 52942
L4269 52893
L4342 52869
L4391 52869
L4464 52893
L4489 52918
" />
</g><text x="4330.708661" y="73090.551181"
textLength="571.811024" font-size="682.401575" lengthAdjust="spacingAndGlyphs"
text-anchor="middle" opacity="0">D</text>
<g class="stroked-text"><desc>D</desc>
<path d="M4196 73066
L4196 72554
L4318 72554
L4391 72578
L4440 72627
L4464 72676
L4489 72773
L4489 72846
L4464 72944
L4440 72993
L4391 73041
L4318 73066
L4196 73066
" />
</g><path d="M112992 23622
L112205 23622
" />
<path d="M112992 43307
L112205 43307
" />
<path d="M112992 62992
L112205 62992
" />
<text x="112599.291339" y="14035.433071"
textLength="498.700787" font-size="682.401575" lengthAdjust="spacingAndGlyphs"
text-anchor="middle" opacity="0">A</text>
<g class="stroked-text"><desc>A</desc>
<path d="M112477 13864
L112721 13864
" />
<path d="M112428 14011
L112599 13499
L112769 14011
" />
</g><text x="112599.291339" y="33720.472441"
textLength="571.811024" font-size="682.401575" lengthAdjust="spacingAndGlyphs"
text-anchor="middle" opacity="0">B</text>
<g class="stroked-text"><desc>B</desc>
<path d="M112635 33427
L112708 33452
L112733 33476
L112757 33525
L112757 33598
L112733 33647
L112708 33671
L112660 33696
L112465 33696
L112465 33184
L112635 33184
L112684 33208
L112708 33233
L112733 33281
L112733 33330
L112708 33379
L112684 33403
L112635 33427
L112465 33427
" />
</g><text x="112599.291339" y="53405.511811"
textLength="571.811024" font-size="682.401575" lengthAdjust="spacingAndGlyphs"
text-anchor="middle" opacity="0">C</text>
<g class="stroked-text"><desc>C</desc>
<path d="M112757 53332
L112733 53356
L112660 53381
L112611 53381
L112538 53356
L112489 53307
L112465 53259
L112440 53161
L112440 53088
L112465 52991
L112489 52942
L112538 52893
L112611 52869
L112660 52869
L112733 52893
L112757 52918
" />
</g><text x="112599.291339" y="73090.551181"
textLength="571.811024" font-size="682.401575" lengthAdjust="spacingAndGlyphs"
text-anchor="middle" opacity="0">D</text>
<g class="stroked-text"><desc>D</desc>
<path d="M112465 73066
L112465 72554
L112587 72554
L112660 72578
L112708 72627
L112733 72676
L112757 72773
L112757 72846
L112733 72944
L112708 72993
L112660 73041
L112587 73066
L112465 73066
" />
</g><text x="78741.023622" y="76321.732283"
textLength="2759.645669" font-size="787.401575" lengthAdjust="spacingAndGlyphs"
text-anchor="start" opacity="0">Date: </text>
<g class="stroked-text"><desc>Date: </desc>
<path d="M78911 76293
L78911 75703
L79052 75703
L79136 75731
L79192 75787
L79220 75843
L79249 75956
L79249 76040
L79220 76152
L79192 76209
L79136 76265
L79052 76293
L78911 76293
" />
<path d="M79755 76293
L79755 75984
L79727 75928
L79670 75899
L79558 75899
L79502 75928
" />
<path d="M79755 76265
L79699 76293
L79558 76293
L79502 76265
L79474 76209
L79474 76152
L79502 76096
L79558 76068
L79699 76068
L79755 76040
" />
<path d="M79952 75899
L80177 75899
" />
<path d="M80036 75703
L80036 76209
L80064 76265
L80120 76293
L80177 76293
" />
<path d="M80598 76265
L80542 76293
L80430 76293
L80373 76265
L80345 76209
L80345 75984
L80373 75928
L80430 75899
L80542 75899
L80598 75928
L80627 75984
L80627 76040
L80345 76096
" />
<path d="M80880 76237
L80908 76265
L80880 76293
L80852 76265
L80880 76237
L80880 76293
" />
<path d="M80880 75928
L80908 75956
L80880 75984
L80852 75956
L80880 75928
L80880 75984
" />
</g><path d="M69685 76577
L112205 76577
" />
<text x="70079.606299" y="77424.094488"
textLength="12236.614173" font-size="787.401575" lengthAdjust="spacingAndGlyphs"
text-anchor="start" opacity="0">KiCad E.D.A.  kicad (6.0.0)</text>
<g class="stroked-text"><desc>KiCad E.D.A.  kicad (6.0.0)</desc>
<path d="M70250 77395
L70250 76805
" />
<path d="M70587 77395
L70334 77058
" />
<path d="M70587 76805
L70250 77142
" />
<path d="M70840 77395
L70840 77002
" />
<path d="M70840 76805
L70812 76833
L70840 76861
L70868 76833
L70840 76805
L70840 76861
" />
<path d="M71459 77339
L71431 77367
L71346 77395
L71290 77395
L71206 77367
L71150 77311
L71121 77255
L71093 77142
L71093 77058
L71121 76946
L71150 76889
L71206 76833
L71290 76805
L71346 76805
L71431 76833
L71459 76861
" />
<path d="M71965 77395
L71965 77086
L71937 77030
L71881 77002
L71768 77002
L71712 77030
" />
<path d="M71965 77367
L71909 77395
L71768 77395
L71712 77367
L71684 77311
L71684 77255
L71712 77199
L71768 77170
L71909 77170
L71965 77142
" />
<path d="M72499 77395
L72499 76805
" />
<path d="M72499 77367
L72443 77395
L72331 77395
L72274 77367
L72246 77339
L72218 77283
L72218 77114
L72246 77058
L72274 77030
L72331 77002
L72443 77002
L72499 77030
" />
<path d="M73231 77086
L73427 77086
" />
<path d="M73512 77395
L73231 77395
L73231 76805
L73512 76805
" />
<path d="M73765 77339
L73793 77367
L73765 77395
L73737 77367
L73765 77339
L73765 77395
" />
<path d="M74046 77395
L74046 76805
L74187 76805
L74271 76833
L74327 76889
L74355 76946
L74384 77058
L74384 77142
L74355 77255
L74327 77311
L74271 77367
L74187 77395
L74046 77395
" />
<path d="M74637 77339
L74665 77367
L74637 77395
L74609 77367
L74637 77339
L74637 77395
" />
<path d="M74890 77227
L75171 77227
" />
<path d="M74834 77395
L75030 76805
L75227 77395
" />
<path d="M75424 77339
L75452 77367
L75424 77395
L75396 77367
L75424 77339
L75424 77395
" />
<path d="M76605 77395
L76605 76805
" />
<path d="M76661 77170
L76830 77395
" />
<path d="M76830 77002
L76605 77227
" />
<path d="M77083 77395
L77083 77002
" />
<path d="M77083 76805
L77055 76833
L77083 76861
L77111 76833
L77083 76805
L77083 76861
" />
<path d="M77618 77367
L77561 77395
L77449 77395
L77393 77367
L77364 77339
L77336 77283
L77336 77114
L77364 77058
L77393 77030
L77449 77002
L77561 77002
L77618 77030
" />
<path d="M78124 77395
L78124 77086
L78096 77030
L78039 77002
L77927 77002
L77871 77030
" />
<path d="M78124 77367
L78067 77395
L77927 77395
L77871 77367
L77842 77311
L77842 77255
L77871 77199
L77927 77170
L78067 77170
L78124 77142
" />
<path d="M78658 77395
L78658 76805
" />
<path d="M78658 77367
L78602 77395
L78489 77395
L78433 77367
L78405 77339
L78377 77283
L78377 77114
L78405 77058
L78433 77030
L78489 77002
L78602 77002
L78658 77030
" />
<path d="M79558 77620
L79530 77592
L79474 77508
L79445 77452
L79417 77367
L79389 77227
L79389 77114
L79417 76974
L79445 76889
L79474 76833
L79530 76749
L79558 76721
" />
<path d="M80036 76805
L79923 76805
L79867 76833
L79839 76861
L79783 76946
L79755 77058
L79755 77283
L79783 77339
L79811 77367
L79867 77395
L79980 77395
L80036 77367
L80064 77339
L80092 77283
L80092 77142
L80064 77086
L80036 77058
L79980 77030
L79867 77030
L79811 77058
L79783 77086
L79755 77142
" />
<path d="M80345 77339
L80373 77367
L80345 77395
L80317 77367
L80345 77339
L80345 77395
" />
<path d="M80739 76805
L80795 76805
L80852 76833
L80880 76861
L80908 76917
L80936 77030
L80936 77170
L80908 77283
L80880 77339
L80852 77367
L80795 77395
L80739 77395
L80683 77367
L80655 77339
L80627 77283
L80598 77170
L80598 77030
L80627 76917
L80655 76861
L80683 76833
L80739 76805
" />
<path d="M81189 77339
L81217 77367
L81189 77395
L81161 77367
L81189 77339
L81189 77395
" />
<path d="M81583 76805
L81639 76805
L81695 76833
L81723 76861
L81751 76917
L81780 77030
L81780 77170
L81751 77283
L81723 77339
L81695 77367
L81639 77395
L81583 77395
L81526 77367
L81498 77339
L81470 77283
L81442 77170
L81442 77030
L81470 76917
L81498 76861
L81526 76833
L81583 76805
" />
<path d="M81976 77620
L82004 77592
L82061 77508
L82089 77452
L82117 77367
L82145 77227
L82145 77114
L82117 76974
L82089 76889
L82061 76833
L82004 76749
L81976 76721
" />
</g><path d="M69685 75396
L112205 75396
" />
</g>
<g style="fill:#840000; fill-opacity:0.0; 
stroke:#840000; stroke-width:118.110236; stroke-opacity:1; 
stroke-linecap:round; stroke-linejoin:round;">
<text x="103544.173228" y="76321.732283"
textLength="2337.834646" font-size="787.401575" lengthAdjust="spacingAndGlyphs"
text-anchor="start" opacity="0">Rev: </text>
<g class="stroked-text"><desc>Rev: </desc>
<path d="M104098 76293
L103902 76012
" />
<path d="M103761 76293
L103761 75703
L103986 75703
L104042 75731
L104070 75759
L104098 75815
L104098 75899
L104070 75956
L104042 75984
L103986 76012
L103761 76012
" />
<path d="M104577 76265
L104520 76293
L104408 76293
L104352 76265
L104323 76209
L104323 75984
L104352 75928
L104408 75899
L104520 75899
L104577 75928
L104605 75984
L104605 76040
L104323 76096
" />
<path d="M104802 75899
L104942 76293
L105083 75899
" />
<path d="M105308 76237
L105336 76265
L105308 76293
L105280 76265
L105308 76237
L105308 76293
" />
<path d="M105308 75928
L105336 75956
L105308 75984
L105280 75956
L105308 75928
L105308 75984
" />
</g></g>
<g style="fill:#840000; fill-opacity:0.0; 
stroke:#840000; stroke-width:60.000000; stroke-opacity:1; 
stroke-linecap:round; stroke-linejoin:round;">
<text x="70079.606299" y="76321.732283"
textLength="3781.220472" font-size="787.401575" lengthAdjust="spacingAndGlyphs"
text-anchor="start" opacity="0">Size: A4</text>
<g class="stroked-text"><desc>Size: A4</desc>
<path d="M70222 76265
L70306 76293
L70447 76293
L70503 76265
L70531 76237
L70559 76181
L70559 76124
L70531 76068
L70503 76040
L70447 76012
L70334 75984
L70278 75956
L70250 75928
L70222 75871
L70222 75815
L70250 75759
L70278 75731
L70334 75703
L70475 75703
L70559 75731
" />
<path d="M70812 76293
L70812 75899
" />
<path d="M70812 75703
L70784 75731
L70812 75759
L70840 75731
L70812 75703
L70812 75759
" />
<path d="M71037 75899
L71346 75899
L71037 76293
L71346 76293
" />
<path d="M71796 76265
L71740 76293
L71628 76293
L71571 76265
L71543 76209
L71543 75984
L71571 75928
L71628 75899
L71740 75899
L71796 75928
L71825 75984
L71825 76040
L71543 76096
" />
<path d="M72078 76237
L72106 76265
L72078 76293
L72049 76265
L72078 76237
L72078 76293
" />
<path d="M72078 75928
L72106 75956
L72078 75984
L72049 75956
L72078 75928
L72078 75984
" />
<path d="M72781 76124
L73062 76124
" />
<path d="M72724 76293
L72921 75703
L73118 76293
" />
<path d="M73568 75899
L73568 76293
" />
<path d="M73427 75674
L73287 76096
L73652 76096
" />
</g><text x="103544.173228" y="77424.094488"
textLength="3350.196850" font-size="787.401575" lengthAdjust="spacingAndGlyphs"
text-anchor="start" opacity="0">Id: 3/4</text>
<g class="stroked-text"><desc>Id: 3/4</desc>
<path d="M103714 77395
L103714 76805
" />
<path d="M104249 77395
L104249 76805
" />
<path d="M104249 77367
L104192 77395
L104080 77395
L104024 77367
L103995 77339
L103967 77283
L103967 77114
L103995 77058
L104024 77030
L104080 77002
L104192 77002
L104249 77030
" />
<path d="M104530 77339
L104558 77367
L104530 77395
L104502 77367
L104530 77339
L104530 77395
" />
<path d="M104530 77030
L104558 77058
L104530 77086
L104502 77058
L104530 77030
L104530 77086
" />
<path d="M105205 76805
L105570 76805
L105373 77030
L105458 77030
L105514 77058
L105542 77086
L105570 77142
L105570 77283
L105542 77339
L105514 77367
L105458 77395
L105289 77395
L105233 77367
L105205 77339
" />
<path d="M106245 76777
L105739 77536
" />
<path d="M106695 77002
L106695 77395
" />
<path d="M106555 76777
L106414 77199
L106780 77199
" />
</g><path d="M69685 73821
L112205 73821
" />
</g>
<g style="fill:#840000; fill-opacity:0.0; 
stroke:#840000; stroke-width:157.480315; stroke-opacity:1; 
stroke-linecap:round; stroke-linejoin:round;">
<text x="70079.606299" y="74924.094488"
textLength="3705.511811" font-size="1049.842520" lengthAdjust="spacingAndGlyphs"
text-anchor="start" opacity="0">Title: </text>
<g class="stroked-text"><desc>Title: </desc>
<path d="M70360 74099
L70810 74099
" />
<path d="M70486 74886
L70585 74099
" />
<path d="M70974 74886
L71039 74361
" />
<path d="M71072 74099
L71030 74136
L71063 74174
L71105 74136
L71072 74099
L71063 74174
" />
<path d="M71302 74361
L71602 74361
" />
<path d="M71447 74099
L71363 74774
L71391 74849
L71461 74886
L71536 74886
" />
<path d="M71911 74886
L71841 74849
L71812 74774
L71897 74099
" />
<path d="M72516 74849
L72436 74886
L72286 74886
L72216 74849
L72187 74774
L72225 74474
L72272 74399
L72352 74361
L72501 74361
L72572 74399
L72600 74474
L72591 74549
L72206 74624
" />
<path d="M72895 74811
L72928 74849
L72886 74886
L72853 74849
L72895 74811
L72886 74886
" />
<path d="M72947 74399
L72980 74436
L72937 74474
L72905 74436
L72947 74399
L72937 74474
" />
</g></g>
<g style="fill:#840000; fill-opacity:0.0; 
stroke:#840000; stroke-width:60.000000; stroke-opacity:1; 
stroke-linecap:round; stroke-linejoin:round;">
<text x="70079.606299" y="73408.346457"
textLength="8950.511811" font-size="787.401575" lengthAdjust="spacingAndGlyphs"
text-anchor="start" opacity="0">File: MIDI.kicad_sch</text>
<g class="stroked-text"><desc>File: MIDI.kicad_sch</desc>
<path d="M70447 73070
L70250 73070
" />
<path d="M70250 73380
L70250 72789
L70531 72789
" />
<path d="M70756 73380
L70756 72986
" />
<path d="M70756 72789
L70728 72817
L70756 72845
L70784 72817
L70756 72789
L70756 72845
" />
<path d="M71121 73380
L71065 73352
L71037 73295
L71037 72789
" />
<path d="M71571 73352
L71515 73380
L71403 73380
L71346 73352
L71318 73295
L71318 73070
L71346 73014
L71403 72986
L71515 72986
L71571 73014
L71600 73070
L71600 73127
L71318 73183
" />
<path d="M71853 73323
L71881 73352
L71853 73380
L71825 73352
L71853 73323
L71853 73380
" />
<path d="M71853 73014
L71881 73042
L71853 73070
L71825 73042
L71853 73014
L71853 73070
" />
<path d="M72584 73380
L72584 72789
L72781 73211
L72977 72789
L72977 73380
" />
<path d="M73259 73380
L73259 72789
" />
<path d="M73540 73380
L73540 72789
L73681 72789
L73765 72817
L73821 72874
L73849 72930
L73877 73042
L73877 73127
L73849 73239
L73821 73295
L73765 73352
L73681 73380
L73540 73380
" />
<path d="M74130 73380
L74130 72789
" />
<path d="M74412 73323
L74440 73352
L74412 73380
L74384 73352
L74412 73323
L74412 73380
" />
<path d="M74693 73380
L74693 72789
" />
<path d="M74749 73155
L74918 73380
" />
<path d="M74918 72986
L74693 73211
" />
<path d="M75171 73380
L75171 72986
" />
<path d="M75171 72789
L75143 72817
L75171 72845
L75199 72817
L75171 72789
L75171 72845
" />
<path d="M75705 73352
L75649 73380
L75537 73380
L75480 73352
L75452 73323
L75424 73267
L75424 73098
L75452 73042
L75480 73014
L75537 72986
L75649 72986
L75705 73014
" />
<path d="M76211 73380
L76211 73070
L76183 73014
L76127 72986
L76015 72986
L75958 73014
" />
<path d="M76211 73352
L76155 73380
L76015 73380
L75958 73352
L75930 73295
L75930 73239
L75958 73183
L76015 73155
L76155 73155
L76211 73127
" />
<path d="M76746 73380
L76746 72789
" />
<path d="M76746 73352
L76690 73380
L76577 73380
L76521 73352
L76493 73323
L76465 73267
L76465 73098
L76493 73042
L76521 73014
L76577 72986
L76690 72986
L76746 73014
" />
<path d="M76886 73436
L77336 73436
" />
<path d="M77449 73352
L77505 73380
L77618 73380
L77674 73352
L77702 73295
L77702 73267
L77674 73211
L77618 73183
L77533 73183
L77477 73155
L77449 73098
L77449 73070
L77477 73014
L77533 72986
L77618 72986
L77674 73014
" />
<path d="M78208 73352
L78152 73380
L78039 73380
L77983 73352
L77955 73323
L77927 73267
L77927 73098
L77955 73042
L77983 73014
L78039 72986
L78152 72986
L78208 73014
" />
<path d="M78461 73380
L78461 72789
" />
<path d="M78714 73380
L78714 73070
L78686 73014
L78630 72986
L78546 72986
L78489 73014
L78461 73042
" />
</g><path d="M69685 71459
L112205 71459
" />
<text x="70079.606299" y="72345.354331"
textLength="9649.409449" font-size="787.401575" lengthAdjust="spacingAndGlyphs"
text-anchor="start" opacity="0">Sheet: /MIDI_Output/</text>
<g class="stroked-text"><desc>Sheet: /MIDI_Output/</desc>
<path d="M70222 72289
L70306 72317
L70447 72317
L70503 72289
L70531 72260
L70559 72204
L70559 72148
L70531 72092
L70503 72064
L70447 72035
L70334 72007
L70278 71979
L70250 71951
L70222 71895
L70222 71839
L70250 71782
L70278 71754
L70334 71726
L70475 71726
L70559 71754
" />
<path d="M70812 72317
L70812 71726
" />
<path d="M71065 72317
L71065 72007
L71037 71951
L70981 71923
L70897 71923
L70840 71951
L70812 71979
" />
<path d="M71571 72289
L71515 72317
L71403 72317
L71346 72289
L71318 72232
L71318 72007
L71346 71951
L71403 71923
L71515 71923
L71571 71951
L71600 72007
L71600 72064
L71318 72120
" />
<path d="M72078 72289
L72021 72317
L71909 72317
L71853 72289
L71825 72232
L71825 72007
L71853 71951
L71909 71923
L72021 71923
L72078 71951
L72106 72007
L72106 72064
L71825 72120
" />
<path d="M72274 71923
L72499 71923
" />
<path d="M72359 71726
L72359 72232
L72387 72289
L72443 72317
L72499 72317
" />
<path d="M72696 72260
L72724 72289
L72696 72317
L72668 72289
L72696 72260
L72696 72317
" />
<path d="M72696 71951
L72724 71979
L72696 72007
L72668 71979
L72696 71951
L72696 72007
" />
<path d="M73849 71698
L73343 72457
" />
<path d="M74046 72317
L74046 71726
L74243 72148
L74440 71726
L74440 72317
" />
<path d="M74721 72317
L74721 71726
" />
<path d="M75002 72317
L75002 71726
L75143 71726
L75227 71754
L75283 71811
L75312 71867
L75340 71979
L75340 72064
L75312 72176
L75283 72232
L75227 72289
L75143 72317
L75002 72317
" />
<path d="M75593 72317
L75593 71726
" />
<path d="M75733 72373
L76183 72373
" />
<path d="M76436 71726
L76549 71726
L76605 71754
L76661 71811
L76690 71923
L76690 72120
L76661 72232
L76605 72289
L76549 72317
L76436 72317
L76380 72289
L76324 72232
L76296 72120
L76296 71923
L76324 71811
L76380 71754
L76436 71726
" />
<path d="M77196 71923
L77196 72317
" />
<path d="M76943 71923
L76943 72232
L76971 72289
L77027 72317
L77111 72317
L77168 72289
L77196 72260
" />
<path d="M77393 71923
L77618 71923
" />
<path d="M77477 71726
L77477 72232
L77505 72289
L77561 72317
L77618 72317
" />
<path d="M77814 71923
L77814 72514
" />
<path d="M77814 71951
L77871 71923
L77983 71923
L78039 71951
L78067 71979
L78096 72035
L78096 72204
L78067 72260
L78039 72289
L77983 72317
L77871 72317
L77814 72289
" />
<path d="M78602 71923
L78602 72317
" />
<path d="M78349 71923
L78349 72232
L78377 72289
L78433 72317
L78517 72317
L78574 72289
L78602 72260
" />
<path d="M78799 71923
L79024 71923
" />
<path d="M78883 71726
L78883 72232
L78911 72289
L78967 72317
L79024 72317
" />
<path d="M79642 71698
L79136 72457
" />
</g></g>
<g style="fill:#840000; fill-opacity:0.0; 
stroke:#840000; stroke-width:118.110236; stroke-opacity:1; 
stroke-linecap:round; stroke-linejoin:round;">
<text x="70079.606299" y="71164.251969"
textLength="60.000000" font-size="787.401575" lengthAdjust="spacingAndGlyphs"
text-anchor="start" opacity="0"></text>
<g class="stroked-text"><desc></desc>
</g></g>
<g style="fill:#840000; fill-opacity:0.0; 
stroke:#840000; stroke-width:60.000000; stroke-opacity:1; 
stroke-linecap:round; stroke-linejoin:round;">
<text x="70079.606299" y="69983.149606"
textLength="118.110236" font-size="787.401575" lengthAdjust="spacingAndGlyphs"
text-anchor="start" opacity="0"></text>
<g class="stroked-text"><desc></desc>
</g><text x="70079.606299" y="68802.047244"
textLength="60.000000" font-size="787.401575" lengthAdjust="spacingAndGlyphs"
text-anchor="start" opacity="0"></text>
<g class="stroked-text"><desc></desc>
</g><text x="70079.606299" y="67620.944882"
textLength="60.000000" font-size="787.401575" lengthAdjust="spacingAndGlyphs"
text-anchor="start" opacity="0"></text>
<g class="stroked-text"><desc></desc>
</g><text x="70079.606299" y="66439.842520"
textLength="60.000000" font-size="787.401575" lengthAdjust="spacingAndGlyphs"
text-anchor="start" opacity="0"></text>
<g class="stroked-text"><desc></desc>
</g><path d="M77559 75396
L77559 76577
" />
<path d="M102756 75396
L102756 77955
" />
<g >
</g>
<g style="fill:#840000; fill-opacity:0.0; 
stroke:#840000; stroke-width:100.000000; stroke-opacity:1; 
stroke-linecap:round; stroke-linejoin:round;">
<path style="fill:#840000; fill-opacity:0.0; 
stroke:#840000; stroke-width:100.000000; stroke-opacity:1; 
stroke-linecap:round; stroke-linejoin:round;fill:none"
d="M 46000.000000,32500.000000
46000.000000,34500.000000
48500.000000,33500.000000
Z" /> 
</g>
<g style="fill:#840000; fill-opacity:0.0; 
stroke:#840000; stroke-width:60.000000; stroke-opacity:1; 
stroke-linecap:round; stroke-linejoin:round;">
<path d="M46000 33500
L44500 33500
" />
</g>
<g style="fill:#A90000; fill-opacity:0.0; 
stroke:#A90000; stroke-width:60.000000; stroke-opacity:1; 
stroke-linecap:round; stroke-linejoin:round;">
<text x="45250.000000" y="33400.000000"
textLength="440.944882" font-size="533.307087" lengthAdjust="spacingAndGlyphs"
text-anchor="middle" opacity="0">2</text>
<g class="stroked-text"><desc>2</desc>
<path d="M45135 33019
L45154 33000
L45192 32980
L45288 32980
L45326 33000
L45345 33019
L45364 33057
L45364 33095
L45345 33152
L45116 33380
L45364 33380
" />
</g></g>
<g style="fill:#840000; fill-opacity:0.0; 
stroke:#840000; stroke-width:60.000000; stroke-opacity:1; 
stroke-linecap:round; stroke-linejoin:round;">
<path d="M48500 33500
L50000 33500
" />
</g>
<g style="fill:#A90000; fill-opacity:0.0; 
stroke:#A90000; stroke-width:60.000000; stroke-opacity:1; 
stroke-linecap:round; stroke-linejoin:round;">
<text x="49250.000000" y="33400.000000"
textLength="440.944882" font-size="533.307087" lengthAdjust="spacingAndGlyphs"
text-anchor="middle" opacity="0">4</text>
<g class="stroked-text"><desc>4</desc>
<path d="M49326 33114
L49326 33380
" />
<path d="M49230 32961
L49135 33247
L49383 33247
" />
</g></g>
<g style="fill:#006464; fill-opacity:0.0; 
stroke:#006464; stroke-width:60.000000; stroke-opacity:1; 
stroke-linecap:round; stroke-linejoin:round;">
<text x="44500.000000" y="30750.000000"
textLength="1060.000000" font-size="666.653543" lengthAdjust="spacingAndGlyphs"
text-anchor="middle" opacity="0">U1</text>
<g class="stroked-text"><desc>U1</desc>
<path d="M44119 30226
L44119 30630
L44142 30678
L44166 30702
L44214 30726
L44309 30726
L44357 30702
L44380 30678
L44404 30630
L44404 30226
" />
<path d="M44904 30726
L44619 30726
" />
<path d="M44761 30726
L44761 30226
L44714 30297
L44666 30345
L44619 30369
" />
</g><text x="44500.000000" y="31750.000000"
textLength="4274.291339" font-size="666.653543" lengthAdjust="spacingAndGlyphs"
text-anchor="middle" opacity="0">74LVC1G34</text>
<g class="stroked-text"><desc>74LVC1G34</desc>
<path d="M42464 31226
L42797 31226
L42583 31726
" />
<path d="M43202 31392
L43202 31726
" />
<path d="M43083 31202
L42964 31559
L43273 31559
" />
<path d="M43702 31726
L43464 31726
L43464 31226
" />
<path d="M43797 31226
L43964 31726
L44130 31226
" />
<path d="M44583 31678
L44559 31702
L44488 31726
L44440 31726
L44369 31702
L44321 31654
L44297 31607
L44273 31511
L44273 31440
L44297 31345
L44321 31297
L44369 31250
L44440 31226
L44488 31226
L44559 31250
L44583 31273
" />
<path d="M45059 31726
L44773 31726
" />
<path d="M44916 31726
L44916 31226
L44869 31297
L44821 31345
L44773 31369
" />
<path d="M45535 31250
L45488 31226
L45416 31226
L45345 31250
L45297 31297
L45273 31345
L45250 31440
L45250 31511
L45273 31607
L45297 31654
L45345 31702
L45416 31726
L45464 31726
L45535 31702
L45559 31678
L45559 31511
L45464 31511
" />
<path d="M45726 31226
L46035 31226
L45869 31416
L45940 31416
L45988 31440
L46011 31464
L46035 31511
L46035 31630
L46011 31678
L45988 31702
L45940 31726
L45797 31726
L45750 31702
L45726 31678
" />
<path d="M46464 31392
L46464 31726
" />
<path d="M46345 31202
L46226 31559
L46535 31559
" />
</g></g>
</g>
<g style="fill:#006464; fill-opacity:0.0; 
stroke:#006464; stroke-width:60.000000; stroke-opacity:1; 
stroke-linecap:round; stroke-linejoin:round;">
<g >
</g>
<g style="fill:#840000; fill-opacity:0.0; 
stroke:#840000; stroke-width:60.000000; stroke-opacity:1; 
stroke-linecap:round; stroke-linejoin:round;">
<path style="fill:#840000; fill-opacity:0.0; 
stroke:#840000; stroke-width:60.000000; stroke-opacity:1; 
stroke-linecap:round; stroke-linejoin:round;fill:none"
d="M 47200.000000,29000.000000
47500.000000,28500.000000
" /> 
<path style="fill:#840000; fill-opacity:0.0; 
stroke:#840000; stroke-width:60.000000; stroke-opacity:1; 
stroke-linecap:round; stroke-linejoin:round;fill:none"
d="M 47500.000000,29500.000000
47500.000000,28500.000000
" /> 
<path style="fill:#840000; fill-opacity:0.0; 
stroke:#840000; stroke-width:60.000000; stroke-opacity:1; 
stroke-linecap:round; stroke-linejoin:round;fill:none"
d="M 47500.000000,28500.000000
47800.000000,29000.000000
" /> 
</g>
<g style="fill:#006464; fill-opacity:0.0; 
stroke:#006464; stroke-width:60.000000; stroke-opacity:1; 
stroke-linecap:round; stroke-linejoin:round;">
<text x="47500.000000" y="27750.000000"
textLength="2298.110236" font-size="666.653543" lengthAdjust="spacingAndGlyphs"
text-anchor="middle" opacity="0">+3.3V</text>
<g class="stroked-text"><desc>+3.3V</desc>
<path d="M46500 27535
L46880 27535
" />
<path d="M46690 27726
L46690 27345
" />
<path d="M47071 27226
L47380 27226
L47214 27416
L47285 27416
L47333 27440
L47357 27464
L47380 27511
L47380 27630
L47357 27678
L47333 27702
L47285 27726
L47142 27726
L47095 27702
L47071 27678
" />
<path d="M47595 27678
L47619 27702
L47595 27726
L47571 27702
L47595 27678
L47595 27726
" />
<path d="M47785 27226
L48095 27226
L47928 27416
L48000 27416
L48047 27440
L48071 27464
L48095 27511
L48095 27630
L48071 27678
L48047 27702
L48000 27726
L47857 27726
L47809 27702
L47785 27678
" />
<path d="M48238 27226
L48404 27726
L48571 27226
" />
</g></g>
</g>
<g style="fill:#006464; fill-opacity:0.0; 
stroke:#006464; stroke-width:60.000000; stroke-opacity:1; 
stroke-linecap:round; stroke-linejoin:round;">
<g >
</g>
<g style="fill:#840000; fill-opacity:0.0; 
stroke:#840000; stroke-width:60.000000; stroke-opacity:1; 
stroke-linecap:round; stroke-linejoin:round;">
<path style="fill:#840000; fill-opacity:0.0; 
stroke:#840000; stroke-width:60.000000; stroke-opacity:1; 
stroke-linecap:round; stroke-linejoin:round;fill:none"
d="M 47500.000000,38000.000000
47500.000000,38500.000000
48000.000000,38500.000000
47500.000000,39000.000000
47000.000000,38500.000000
47500.000000,38500.000000
" /> 
</g>
<g style="fill:#006464; fill-opacity:0.0; 
stroke:#006464; stroke-width:60.000000; stroke-opacity:1; 
stroke-linecap:round; stroke-linejoin:round;">
<text x="47500.000000" y="40250.000000"
textLength="1583.818898" font-size="666.653543" lengthAdjust="spacingAndGlyphs"
text-anchor="middle" opacity="0">GND</text>
<g class="stroked-text"><desc>GND</desc>
<path d="M47119 39750
L47071 39726
L47000 39726
L46928 39750
L46880 39797
L46857 39845
L46833 39940
L46833 40011
L46857 40107
L46880 40154
L46928 40202
L47000 40226
L47047 40226
L47119 40202
L47142 40178
L47142 40011
L47047 40011
" />
<path d="M47357 40226
L47357 39726
L47642 40226
L47642 39726
" />
<path d="M47880 40226
L47880 39726
L48000 39726
L48071 39750
L48119 39797
L48142 39845
L48166 39940
L48166 40011
L48142 40107
L48119 40154
L48071 40202
L48000 40226
L47880 40226
" />
</g></g>
</g>
<g style="fill:#006464; fill-opacity:0.0; 
stroke:#006464; stroke-width:60.000000; stroke-opacity:1; 
stroke-linecap:round; stroke-linejoin:round;">
<g >
</g>
<g style="fill:#840000; fill-opacity:0.0; 
stroke:#840000; stroke-width:60.000000; stroke-opacity:1; 
stroke-linecap:round; stroke-linejoin:round;">
</g>
<g style="fill:#840000; fill-opacity:0.0; 
stroke:#840000; stroke-width:100.000000; stroke-opacity:1; 
stroke-linecap:round; stroke-linejoin:round;">
<rect x="80100.000000" y="28000.000000" width="800.000000" height="2000.000000" rx="0.000000" />
</g>
<g style="fill:#840000; fill-opacity:0.0; 
stroke:#840000; stroke-width:60.000000; stroke-opacity:1; 
stroke-linecap:round; stroke-linejoin:round;">
<path d="M80500 30000
L80500 30500
" />
<path d="M80500 28000
L80500 27500
" />
</g>
<g style="fill:#006464; fill-opacity:0.0; 
stroke:#006464; stroke-width:60.000000; stroke-opacity:1; 
stroke-linecap:round; stroke-linejoin:round;">
<text x="82019.330709" y="28749.921260"
textLength="1036.181102" font-size="666.653543" lengthAdjust="spacingAndGlyphs"
text-anchor="middle" opacity="0">R2</text>
<g class="stroked-text"><desc>R2</desc>
<path d="M81935 28726
L81769 28487
" />
<path d="M81650 28726
L81650 28226
L81840 28226
L81888 28249
L81912 28273
L81935 28321
L81935 28392
L81912 28440
L81888 28464
L81840 28487
L81650 28487
" />
<path d="M82126 28273
L82150 28249
L82197 28226
L82316 28226
L82364 28249
L82388 28273
L82412 28321
L82412 28368
L82388 28440
L82102 28726
L82412 28726
" />
</g><text x="82257.440945" y="29749.921260"
textLength="1512.362205" font-size="666.653543" lengthAdjust="spacingAndGlyphs"
text-anchor="middle" opacity="0">10R</text>
<g class="stroked-text"><desc>10R</desc>
<path d="M81912 29726
L81626 29726
" />
<path d="M81769 29726
L81769 29226
L81721 29297
L81674 29345
L81626 29368
" />
<path d="M82221 29226
L82269 29226
L82316 29249
L82340 29273
L82364 29321
L82388 29416
L82388 29535
L82364 29630
L82340 29678
L82316 29702
L82269 29726
L82221 29726
L82174 29702
L82150 29678
L82126 29630
L82102 29535
L82102 29416
L82126 29321
L82150 29273
L82174 29249
L82221 29226
" />
<path d="M82888 29726
L82721 29487
" />
<path d="M82602 29726
L82602 29226
L82793 29226
L82840 29249
L82864 29273
L82888 29321
L82888 29392
L82864 29440
L82840 29464
L82793 29487
L82602 29487
" />
</g></g>
</g>
<g style="fill:#006464; fill-opacity:0.0; 
stroke:#006464; stroke-width:60.000000; stroke-opacity:1; 
stroke-linecap:round; stroke-linejoin:round;">
<g >
</g>
<g style="fill:#840000; fill-opacity:0.0; 
stroke:#840000; stroke-width:60.000000; stroke-opacity:1; 
stroke-linecap:round; stroke-linejoin:round;">
</g>
<g style="fill:#840000; fill-opacity:0.0; 
stroke:#840000; stroke-width:100.000000; stroke-opacity:1; 
stroke-linecap:round; stroke-linejoin:round;">
<rect x="59000.000000" y="33100.000000" width="2000.000000" height="800.000000" rx="0.000000" />
</g>
<g style="fill:#840000; fill-opacity:0.0; 
stroke:#840000; stroke-width:60.000000; stroke-opacity:1; 
stroke-linecap:round; stroke-linejoin:round;">
<path d="M59000 33500
L58500 33500
" />
<path d="M61000 33500
L61500 33500
" />
</g>
<g style="fill:#006464; fill-opacity:0.0; 
stroke:#006464; stroke-width:60.000000; stroke-opacity:1; 
stroke-linecap:round; stroke-linejoin:round;">
<text x="59999.960630" y="31249.960630"
textLength="1036.181102" font-size="666.653543" lengthAdjust="spacingAndGlyphs"
text-anchor="middle" opacity="0">R1</text>
<g class="stroked-text"><desc>R1</desc>
<path d="M59916 31226
L59749 30988
" />
<path d="M59630 31226
L59630 30726
L59821 30726
L59868 30749
L59892 30773
L59916 30821
L59916 30892
L59892 30940
L59868 30964
L59821 30988
L59630 30988
" />
<path d="M60392 31226
L60107 31226
" />
<path d="M60249 31226
L60249 30726
L60202 30797
L60154 30845
L60107 30868
" />
</g><text x="60000.000000" y="32249.960630"
textLength="1512.362205" font-size="666.653543" lengthAdjust="spacingAndGlyphs"
text-anchor="middle" opacity="0">33R</text>
<g class="stroked-text"><desc>33R</desc>
<path d="M59345 31726
L59654 31726
L59488 31916
L59559 31916
L59607 31940
L59630 31964
L59654 32011
L59654 32130
L59630 32178
L59607 32202
L59559 32226
L59416 32226
L59369 32202
L59345 32178
" />
<path d="M59821 31726
L60130 31726
L59964 31916
L60035 31916
L60083 31940
L60107 31964
L60130 32011
L60130 32130
L60107 32178
L60083 32202
L60035 32226
L59892 32226
L59845 32202
L59821 32178
" />
<path d="M60630 32226
L60464 31988
" />
<path d="M60345 32226
L60345 31726
L60535 31726
L60583 31749
L60607 31773
L60630 31821
L60630 31892
L60607 31940
L60583 31964
L60535 31988
L60345 31988
" />
</g></g>
</g>
<g style="fill:#006464; fill-opacity:0.0; 
stroke:#006464; stroke-width:60.000000; stroke-opacity:1; 
stroke-linecap:round; stroke-linejoin:round;">
<g >
</g>
<g style="fill:#840000; fill-opacity:0.0; 
stroke:#840000; stroke-width:60.000000; stroke-opacity:1; 
stroke-linecap:round; stroke-linejoin:round;">
<path style="fill:#840000; fill-opacity:0.0; 
stroke:#840000; stroke-width:60.000000; stroke-opacity:1; 
stroke-linecap:round; stroke-linejoin:round;fill:none"
d="M 80200.000000,24500.000000
80500.000000,24000.000000
" /> 
<path style="fill:#840000; fill-opacity:0.0; 
stroke:#840000; stroke-width:60.000000; stroke-opacity:1; 
stroke-linecap:round; stroke-linejoin:round;fill:none"
d="M 80500.000000,25000.000000
80500.000000,24000.000000
" /> 
<path style="fill:#840000; fill-opacity:0.0; 
stroke:#840000; stroke-width:60.000000; stroke-opacity:1; 
stroke-linecap:round; stroke-linejoin:round;fill:none"
d="M 80500.000000,24000.000000
80800.000000,24500.000000
" /> 
</g>
<g style="fill:#006464; fill-opacity:0.0; 
stroke:#006464; stroke-width:60.000000; stroke-opacity:1; 
stroke-linecap:round; stroke-linejoin:round;">
<text x="80500.000000" y="23250.000000"
textLength="2060.000000" font-size="666.653543" lengthAdjust="spacingAndGlyphs"
text-anchor="middle" opacity="0">+3V3</text>
<g class="stroked-text"><desc>+3V3</desc>
<path d="M79619 23035
L80000 23035
" />
<path d="M79809 23226
L79809 22845
" />
<path d="M80190 22726
L80500 22726
L80333 22916
L80404 22916
L80452 22940
L80476 22964
L80500 23011
L80500 23130
L80476 23178
L80452 23202
L80404 23226
L80261 23226
L80214 23202
L80190 23178
" />
<path d="M80642 22726
L80809 23226
L80976 22726
" />
<path d="M81095 22726
L81404 22726
L81238 22916
L81309 22916
L81357 22940
L81380 22964
L81404 23011
L81404 23130
L81380 23178
L81357 23202
L81309 23226
L81166 23226
L81119 23202
L81095 23178
" />
</g></g>
</g>
<g style="fill:#006464; fill-opacity:0.0; 
stroke:#006464; stroke-width:60.000000; stroke-opacity:1; 
stroke-linecap:round; stroke-linejoin:round;">
<g >
</g>
<g style="fill:#840000; fill-opacity:0.0; 
stroke:#840000; stroke-width:60.000000; stroke-opacity:1; 
stroke-linecap:round; stroke-linejoin:round;">
<path style="fill:#840000; fill-opacity:0.0; 
stroke:#840000; stroke-width:60.000000; stroke-opacity:1; 
stroke-linecap:round; stroke-linejoin:round;fill:none"
d="M 78500.000000,44500.000000
78500.000000,45000.000000
79000.000000,45000.000000
78500.000000,45500.000000
78000.000000,45000.000000
78500.000000,45000.000000
" /> 
</g>
<g style="fill:#006464; fill-opacity:0.0; 
stroke:#006464; stroke-width:60.000000; stroke-opacity:1; 
stroke-linecap:round; stroke-linejoin:round;">
<text x="78500.000000" y="46750.000000"
textLength="1583.818898" font-size="666.653543" lengthAdjust="spacingAndGlyphs"
text-anchor="middle" opacity="0">GND</text>
<g class="stroked-text"><desc>GND</desc>
<path d="M78119 46250
L78071 46226
L78000 46226
L77928 46250
L77880 46297
L77857 46345
L77833 46440
L77833 46511
L77857 46607
L77880 46654
L77928 46702
L78000 46726
L78047 46726
L78119 46702
L78142 46678
L78142 46511
L78047 46511
" />
<path d="M78357 46726
L78357 46226
L78642 46726
L78642 46226
" />
<path d="M78880 46726
L78880 46226
L79000 46226
L79071 46250
L79119 46297
L79142 46345
L79166 46440
L79166 46511
L79142 46607
L79119 46654
L79071 46702
L79000 46726
L78880 46726
" />
</g></g>
</g>
<g style="fill:#006464; fill-opacity:0.0; 
stroke:#006464; stroke-width:60.000000; stroke-opacity:1; 
stroke-linecap:round; stroke-linejoin:round;">
<g >
</g>
<g style="fill:#840000; fill-opacity:0.0; 
stroke:#840000; stroke-width:60.000000; stroke-opacity:1; 
stroke-linecap:round; stroke-linejoin:round;">
</g>
<g style="fill:#FFFFC2; fill-opacity:0.0; 
stroke:#FFFFC2; stroke-width:60.000000; stroke-opacity:1; 
stroke-linecap:round; stroke-linejoin:round;">
</g>
<g style="fill:#FFFFC2; fill-opacity:0.6; 
stroke:#FFFFC2; stroke-width:0.039370; stroke-opacity:1; 
stroke-linecap:round; stroke-linejoin:round;">
<rect x="86000.000000" y="38500.000000" width="1000.000000" height="3000.000000" rx="0.000000" />
</g>
<g style="fill:#840000; fill-opacity:0.6; 
stroke:#840000; stroke-width:0.039370; stroke-opacity:1; 
stroke-linecap:round; stroke-linejoin:round;">
</g>
<g style="fill:#840000; fill-opacity:0.0; 
stroke:#840000; stroke-width:100.000000; stroke-opacity:1; 
stroke-linecap:round; stroke-linejoin:round;">
<rect x="86000.000000" y="38500.000000" width="1000.000000" height="3000.000000" rx="0.000000" />
</g>
<g style="fill:#840000; fill-opacity:0.0; 
stroke:#840000; stroke-width:60.000000; stroke-opacity:1; 
stroke-linecap:round; stroke-linejoin:round;">
<rect x="86000.000000" y="38950.000000" width="500.000000" height="100.000000" rx="0.000000" />
<rect x="86000.000000" y="39950.000000" width="500.000000" height="100.000000" rx="0.000000" />
<rect x="86000.000000" y="40950.000000" width="500.000000" height="100.000000" rx="0.000000" />
</g>
<g style="fill:#840000; fill-opacity:0.0; 
stroke:#840000; stroke-width:100.000000; stroke-opacity:1; 
stroke-linecap:round; stroke-linejoin:round;">
<rect x="86000.000000" y="38500.000000" width="1000.000000" height="3000.000000" rx="0.000000" />
</g>
<g style="fill:#840000; fill-opacity:0.0; 
stroke:#840000; stroke-width:60.000000; stroke-opacity:1; 
stroke-linecap:round; stroke-linejoin:round;">
<path d="M86000 41000
L84500 41000
" />
</g>
<g style="fill:#A90000; fill-opacity:0.0; 
stroke:#A90000; stroke-width:60.000000; stroke-opacity:1; 
stroke-linecap:round; stroke-linejoin:round;">
<text x="85250.000000" y="40900.000000"
textLength="536.181102" font-size="666.653543" lengthAdjust="spacingAndGlyphs"
text-anchor="middle" opacity="0">1</text>
<g class="stroked-text"><desc>1</desc>
<path d="M85392 40876
L85107 40876
" />
<path d="M85250 40876
L85250 40376
L85202 40447
L85154 40495
L85107 40519
" />
</g></g>
<g style="fill:#840000; fill-opacity:0.0; 
stroke:#840000; stroke-width:60.000000; stroke-opacity:1; 
stroke-linecap:round; stroke-linejoin:round;">
<path d="M86000 40000
L84500 40000
" />
</g>
<g style="fill:#A90000; fill-opacity:0.0; 
stroke:#A90000; stroke-width:60.000000; stroke-opacity:1; 
stroke-linecap:round; stroke-linejoin:round;">
<text x="85250.000000" y="39900.000000"
textLength="536.181102" font-size="666.653543" lengthAdjust="spacingAndGlyphs"
text-anchor="middle" opacity="0">2</text>
<g class="stroked-text"><desc>2</desc>
<path d="M85107 39423
L85130 39400
L85178 39376
L85297 39376
L85345 39400
L85369 39423
L85392 39471
L85392 39519
L85369 39590
L85083 39876
L85392 39876
" />
</g></g>
<g style="fill:#840000; fill-opacity:0.0; 
stroke:#840000; stroke-width:60.000000; stroke-opacity:1; 
stroke-linecap:round; stroke-linejoin:round;">
<path d="M86000 39000
L84500 39000
" />
</g>
<g style="fill:#A90000; fill-opacity:0.0; 
stroke:#A90000; stroke-width:60.000000; stroke-opacity:1; 
stroke-linecap:round; stroke-linejoin:round;">
<text x="85250.000000" y="38900.000000"
textLength="536.181102" font-size="666.653543" lengthAdjust="spacingAndGlyphs"
text-anchor="middle" opacity="0">3</text>
<g class="stroked-text"><desc>3</desc>
<path d="M85083 38376
L85392 38376
L85226 38566
L85297 38566
L85345 38590
L85369 38614
L85392 38661
L85392 38780
L85369 38828
L85345 38852
L85297 38876
L85154 38876
L85107 38852
L85083 38828
" />
</g></g>
<g style="fill:#006464; fill-opacity:0.0; 
stroke:#006464; stroke-width:60.000000; stroke-opacity:1; 
stroke-linecap:round; stroke-linejoin:round;">
<text x="86500.000000" y="36749.960630"
textLength="917.125984" font-size="666.653543" lengthAdjust="spacingAndGlyphs"
text-anchor="middle" opacity="0">J2</text>
<g class="stroked-text"><desc>J2</desc>
<path d="M86333 36226
L86333 36583
L86309 36654
L86261 36702
L86190 36726
L86142 36726
" />
<path d="M86547 36273
L86571 36249
L86619 36226
L86738 36226
L86785 36249
L86809 36273
L86833 36321
L86833 36368
L86809 36440
L86523 36726
L86833 36726
" />
</g><text x="86500.000000" y="37749.960630"
textLength="4607.637795" font-size="666.653543" lengthAdjust="spacingAndGlyphs"
text-anchor="middle" opacity="0">Conn_01x03</text>
<g class="stroked-text"><desc>Conn_01x03</desc>
<path d="M84630 37678
L84607 37702
L84535 37726
L84488 37726
L84416 37702
L84369 37654
L84345 37607
L84321 37511
L84321 37440
L84345 37345
L84369 37297
L84416 37249
L84488 37226
L84535 37226
L84607 37249
L84630 37273
" />
<path d="M84916 37726
L84869 37702
L84845 37678
L84821 37630
L84821 37488
L84845 37440
L84869 37416
L84916 37392
L84988 37392
L85035 37416
L85059 37440
L85083 37488
L85083 37630
L85059 37678
L85035 37702
L84988 37726
L84916 37726
" />
<path d="M85297 37392
L85297 37726
" />
<path d="M85297 37440
L85321 37416
L85369 37392
L85440 37392
L85488 37416
L85511 37464
L85511 37726
" />
<path d="M85750 37392
L85750 37726
" />
<path d="M85750 37440
L85773 37416
L85821 37392
L85892 37392
L85940 37416
L85964 37464
L85964 37726
" />
<path d="M86083 37773
L86464 37773
" />
<path d="M86678 37226
L86726 37226
L86773 37249
L86797 37273
L86821 37321
L86845 37416
L86845 37535
L86821 37630
L86797 37678
L86773 37702
L86726 37726
L86678 37726
L86630 37702
L86607 37678
L86583 37630
L86559 37535
L86559 37416
L86583 37321
L86607 37273
L86630 37249
L86678 37226
" />
<path d="M87321 37726
L87035 37726
" />
<path d="M87178 37726
L87178 37226
L87130 37297
L87083 37345
L87035 37368
" />
<path d="M87488 37726
L87750 37392
" />
<path d="M87488 37392
L87750 37726
" />
<path d="M88035 37226
L88083 37226
L88130 37249
L88154 37273
L88178 37321
L88202 37416
L88202 37535
L88178 37630
L88154 37678
L88130 37702
L88083 37726
L88035 37726
L87988 37702
L87964 37678
L87940 37630
L87916 37535
L87916 37416
L87940 37321
L87964 37273
L87988 37249
L88035 37226
" />
<path d="M88369 37226
L88678 37226
L88511 37416
L88583 37416
L88630 37440
L88654 37464
L88678 37511
L88678 37630
L88654 37678
L88630 37702
L88583 37726
L88440 37726
L88392 37702
L88369 37678
" />
</g></g>
</g>
<g style="fill:#006464; fill-opacity:0.0; 
stroke:#006464; stroke-width:62.519685; stroke-opacity:1; 
stroke-linecap:round; stroke-linejoin:round;">
</g>
<g style="fill:#006464; fill-opacity:0.0; 
stroke:#006464; stroke-width:60.000000; stroke-opacity:1; 
stroke-linecap:round; stroke-linejoin:round;">
</g>
<g style="fill:#725600; fill-opacity:0.0; 
stroke:#725600; stroke-width:60.000000; stroke-opacity:1; 
stroke-linecap:round; stroke-linejoin:round;">
<text x="30925.000000" y="33750.000000"
textLength="2845.708661" font-size="666.653543" lengthAdjust="spacingAndGlyphs"
text-anchor="end" opacity="0">MIDI_TX</text>
<g class="stroked-text"><desc>MIDI_TX</desc>
<path d="M28228 33726
L28228 33226
L28395 33583
L28561 33226
L28561 33726
" />
<path d="M28799 33726
L28799 33226
" />
<path d="M29037 33726
L29037 33226
L29156 33226
L29228 33250
L29275 33297
L29299 33345
L29323 33440
L29323 33511
L29299 33607
L29275 33654
L29228 33702
L29156 33726
L29037 33726
" />
<path d="M29537 33726
L29537 33226
" />
<path d="M29656 33773
L30037 33773
" />
<path d="M30085 33226
L30371 33226
" />
<path d="M30228 33726
L30228 33226
" />
<path d="M30490 33226
L30823 33726
" />
<path d="M30823 33226
L30490 33726
" />
</g><path style="fill:#725600; fill-opacity:0.0; 
stroke:#725600; stroke-width:60.000000; stroke-opacity:1; 
stroke-linecap:round; stroke-linejoin:round;fill:none"
d="M 31500.000000,33500.000000
31250.000000,33250.000000
31000.000000,33250.000000
31000.000000,33750.000000
31250.000000,33750.000000
Z" /> 
</g>
<g style="fill:#009600; fill-opacity:0.0; 
stroke:#009600; stroke-width:60.000000; stroke-opacity:1; 
stroke-linecap:round; stroke-linejoin:round;">
<path d="M47500 34500
L47500 38000
" />
<path d="M47500 29500
L47500 32500
" />
<path d="M31500 33500
L44500 33500
" />
<path d="M50000 33500
L58500 33500
" />
<path d="M80500 25000
L80500 27500
" />
<path d="M80500 30500
L80500 39000
" />
<path d="M80500 39000
L84500 39000
" />
<path d="M61500 33500
L78500 33500
" />
<path d="M78500 33500
L78500 40000
" />
<path d="M84500 40000
L78500 40000
" />
<path d="M78500 41000
L84500 41000
" />
<path d="M78500 41000
L78500 44500
" />
</g> 
</svg>
